<?xml version="1.0" encoding="UTF-8"?>
<svg xmlns="http://www.w3.org/2000/svg" viewBox="0 0 1200 630" width="1200" height="630">
  <defs>
    <linearGradient id="g2075" x1="88.3022221559489%" y1="17.86061951567303%" x2="11.697777844051103%" y2="82.13938048432698%">
      <stop offset="0%" stop-color="#D97706"/>
      <stop offset="100%" stop-color="#B45309"/>
    </linearGradient>
  </defs>
  <rect width="1200" height="630" fill="url(#g2075)"/>
  <polygon points="288.348715538159,228.9043816551566 358.348715538159,188.9043816551566 428.348715538159,228.9043816551566 358.348715538159,268.9043816551566" fill="rgba(255,255,255,0.08)" stroke="rgba(255,255,255,0.15)" stroke-width="2"/><line x1="418.348715538159" y1="233.9043816551566" x2="418.348715538159" y2="288.9043816551566" stroke="rgba(255,255,255,0.12)" stroke-width="2"/><path d="M 892.8067822009325 392.56784085649997 C 862.8067822009325 382.56784085649997 812.8067822009325 387.56784085649997 802.8067822009325 322.56784085649997 L 892.8067822009325 332.56784085649997 L 982.8067822009325 322.56784085649997 C 972.8067822009325 387.56784085649997 922.8067822009325 382.56784085649997 892.8067822009325 392.56784085649997 Z" fill="rgba(255,255,255,0.06)" stroke="rgba(255,255,255,0.12)" stroke-width="1.5"/><line x1="892.8067822009325" y1="392.56784085649997" x2="892.8067822009325" y2="332.56784085649997" stroke="rgba(255,255,255,0.12)" stroke-width="1.5"/><rect x="154.59132336545736" y="397.3837222158909" width="8" height="100" rx="1" fill="rgba(255,255,255,0.1)" transform="rotate(48.41023101005703 154.59132336545736 397.3837222158909)"/><circle cx="902.8698888374493" cy="192.91457019746304" r="30" fill="none" stroke="rgba(255,255,255,0.12)" stroke-width="2"/><line x1="892.8698888374493" y1="222.91457019746304" x2="912.8698888374493" y2="222.91457019746304" stroke="rgba(255,255,255,0.1)" stroke-width="2"/><line x1="894.8698888374493" y1="229.91457019746304" x2="910.8698888374493" y2="229.91457019746304" stroke="rgba(255,255,255,0.1)" stroke-width="2"/><circle cx="747.1184980822727" cy="546.2391524924897" r="4.908843078650534" fill="rgba(255,255,255,0.09317859839648009)"/><circle cx="974.5940970722586" cy="486.32771582808346" r="2.6742372708395123" fill="rgba(255,255,255,0.09969769310206175)"/><circle cx="1131.1041682958603" cy="54.16907591279596" r="3.5940362755209208" fill="rgba(255,255,255,0.04064099382609129)"/><circle cx="728.5758246434852" cy="92.71823581075296" r="5.301866821013391" fill="rgba(255,255,255,0.08137588370591403)"/><circle cx="58.925431594252586" cy="544.4711545412429" r="4.495242961682379" fill="rgba(255,255,255,0.07940939480438829)"/><circle cx="75.03250387962908" cy="173.4247969207354" r="3.8825799571350217" fill="rgba(255,255,255,0.0817157036997378)"/><circle cx="225.47764806076884" cy="375.53368768654764" r="4.346461595036089" fill="rgba(255,255,255,0.0770920586399734)"/><circle cx="342.29622564744204" cy="413.65331158274785" r="3.388669681735337" fill="rgba(255,255,255,0.04024900648742914)"/><circle cx="1044.00183216203" cy="361.6048817662522" r="4.2240551225841045" fill="rgba(255,255,255,0.07946272309869529)"/><circle cx="416.81961461436003" cy="524.1794596426189" r="3.8117518797516823" fill="rgba(255,255,255,0.046968258693814276)"/><circle cx="914.9075342575088" cy="407.59438355918974" r="4.406177788972855" fill="rgba(255,255,255,0.10195127256214619)"/><circle cx="564.2521406291053" cy="233.26762033626437" r="4.928340781480074" fill="rgba(255,255,255,0.11490979231894016)"/><circle cx="382.2350511094555" cy="230.97719475394115" r="3.126556234434247" fill="rgba(255,255,255,0.04536195794120431)"/><circle cx="685.9753971453756" cy="119.2121852748096" r="3.1288384264335036" fill="rgba(255,255,255,0.04269197734072805)"/><circle cx="398.6580765340477" cy="111.2875825795345" r="3.5866024512797594" fill="rgba(255,255,255,0.07828470250591636)"/>
  <circle cx="1015.8813723362982" cy="27.188803567551076" r="2.2014408549293876" fill="rgba(255,255,255,0.04259742707479745)"/><circle cx="1171.6023090295494" cy="247.4272684659809" r="1.7646150379441679" fill="rgba(255,255,255,0.03057589909993112)"/><circle cx="430.23622557520866" cy="219.18270828668028" r="2.3829371430911124" fill="rgba(255,255,255,0.030436052749864755)"/><circle cx="227.08282694220543" cy="6.45119528984651" r="1.8503632196225226" fill="rgba(255,255,255,0.030900547055061907)"/><circle cx="1047.0025590620935" cy="145.08711772039533" r="2.00847969064489" fill="rgba(255,255,255,0.03470397789031267)"/><circle cx="21.988016366958618" cy="556.4276947919279" r="2.902566601987928" fill="rgba(255,255,255,0.04236844899831339)"/><circle cx="596.7861299403012" cy="267.05846598604694" r="2.5363260959275067" fill="rgba(255,255,255,0.07139114319114015)"/><circle cx="714.0984434634447" cy="46.364730284549296" r="1.5199241624213755" fill="rgba(255,255,255,0.05871832746313885)"/><circle cx="302.6596315205097" cy="110.9750837716274" r="1.985392049420625" fill="rgba(255,255,255,0.06772649868624285)"/><circle cx="955.4070887155831" cy="93.92581048887223" r="2.889114344958216" fill="rgba(255,255,255,0.060734932457562535)"/><circle cx="161.51099978014827" cy="51.14327222574502" r="2.1171672414056957" fill="rgba(255,255,255,0.04713769815396518)"/><circle cx="914.0267327427864" cy="167.70999767817557" r="1.7597282472997904" fill="rgba(255,255,255,0.053247307864949106)"/><circle cx="802.1641577593982" cy="166.1571642011404" r="1.4407713562250137" fill="rgba(255,255,255,0.051879616659134625)"/><circle cx="825.6964241154492" cy="328.9858213439584" r="1.262375846505165" fill="rgba(255,255,255,0.07230642752954736)"/><circle cx="278.6283069290221" cy="186.3807837618515" r="1.9471261505968869" fill="rgba(255,255,255,0.06342590290121734)"/><circle cx="841.7167296633124" cy="454.715424135793" r="1.9679659837856889" fill="rgba(255,255,255,0.05975419976282865)"/><circle cx="631.9401028566062" cy="589.3161784554832" r="2.521152981556952" fill="rgba(255,255,255,0.0484906238457188)"/><circle cx="342.0688454993069" cy="217.17089922633022" r="1.3006355301477015" fill="rgba(255,255,255,0.04419962299987674)"/><circle cx="361.7641190998256" cy="578.6985521251336" r="1.586473723873496" fill="rgba(255,255,255,0.04578997650649398)"/><circle cx="53.287198673933744" cy="272.83384933602065" r="1.322681115474552" fill="rgba(255,255,255,0.04009595787618309)"/>
  <text x="600" y="335" font-family="system-ui, -apple-system, 'Segoe UI', sans-serif" font-size="50" font-weight="700" fill="rgba(0,0,0,0.15)" text-anchor="middle" letter-spacing="1">Vietnam High School Graduation Exam</text>
  <text x="600" y="332" font-family="system-ui, -apple-system, 'Segoe UI', sans-serif" font-size="50" font-weight="700" fill="white" text-anchor="middle" letter-spacing="1">Vietnam High School Graduation Exam</text>
  <g transform="translate(1140, 575)">
    <rect x="0" y="0" width="40" height="40" rx="8" fill="rgba(255,255,255,0.15)"/>
    <text x="20" y="29" font-family="sans-serif" font-weight="bold" font-size="24" fill="rgba(255,255,255,0.6)" text-anchor="middle">K</text>
  </g>
</svg>